<svg xmlns="http://www.w3.org/2000/svg" width="354" height="212" viewBox="0 0 354 212"><g><g><g><g><path fill="#dbe1ed" d="M9.058 37.119c0-4.993-4.055-9.04-9.058-9.04 5.003 0 9.058-4.048 9.058-9.041 0 4.993 4.055 9.04 9.057 9.04-5.002 0-9.057 4.048-9.057 9.041z"/></g><g><path fill="#dbe1ed" d="M79.14 51.144a70.675 70.675 0 0 1-6.344.53 69.952 69.952 0 0 1-.535 6.385c-.165 1.05-1.16 1.899-2.183 1.9-1.022-.001-2.017-.85-2.182-1.9a69.945 69.945 0 0 1-.535-6.386 70.678 70.678 0 0 1-6.344-.529c-1.053-.164-1.903-1.153-1.903-2.169 0-1.015.85-2.004 1.903-2.169a70.638 70.638 0 0 1 6.347-.529c.083-2.107.258-4.212.532-6.307.165-1.05 1.16-1.9 2.182-1.9 1.023 0 2.018.85 2.183 1.9.273 2.095.449 4.2.531 6.307 2.121.082 4.24.257 6.348.53 1.053.164 1.903 1.153 1.903 2.168 0 1.016-.85 2.005-1.903 2.17z"/></g><g><path fill="#dbe1ed" d="M52.692 163.635c-1.833.237-3.674.389-5.517.46a60.816 60.816 0 0 1-.465 5.552c-.144.914-1.01 1.652-1.898 1.652-.889 0-1.754-.738-1.898-1.652a60.855 60.855 0 0 1-.465-5.552 61.455 61.455 0 0 1-5.517-.46c-.915-.143-1.654-1.003-1.654-1.886s.739-1.743 1.654-1.886a61.407 61.407 0 0 1 5.52-.46c.072-1.833.224-3.663.462-5.485.144-.914 1.01-1.652 1.898-1.652.889 0 1.754.738 1.898 1.652.238 1.822.39 3.652.462 5.485 1.844.07 3.686.223 5.52.46.915.143 1.654 1.003 1.654 1.886s-.74 1.743-1.654 1.886z"/></g><g><path fill="#dbe1ed" d="M54.346 99.927c0 7.883-6.403 14.274-14.301 14.274-7.899 0-14.302-6.39-14.302-14.274 0-7.884 6.403-14.275 14.302-14.275 7.898 0 14.301 6.391 14.301 14.275zm-14.301-9.279c-5.134 0-9.296 4.154-9.296 9.279 0 5.124 4.162 9.278 9.296 9.278 5.134 0 9.296-4.154 9.296-9.278 0-5.125-4.162-9.279-9.296-9.279z"/></g><g><path fill="#d4dcec" d="M99.476 202.862c0 4.993-4.055 9.04-9.057 9.04-5.003 0-9.058-4.047-9.058-9.04 0-4.992 4.055-9.04 9.058-9.04 5.002 0 9.057 4.048 9.057 9.04zm-9.057-5.876a5.882 5.882 0 0 0-5.888 5.876 5.882 5.882 0 0 0 5.888 5.877 5.882 5.882 0 0 0 5.887-5.877 5.882 5.882 0 0 0-5.887-5.876z"/></g><g><path fill="#dbe1ed" d="M45.765 5.24a5.239 5.239 0 0 1-5.244 5.233 5.239 5.239 0 0 1-5.243-5.234A5.239 5.239 0 0 1 40.52.005a5.239 5.239 0 0 1 5.244 5.234z"/></g></g><g><g><path fill="#dbe1ed" d="M345.971 37.281c0-4.99 4.042-9.037 9.029-9.037-4.987 0-9.029-4.046-9.029-9.037 0 4.991-4.042 9.037-9.029 9.037 4.987 0 9.03 4.046 9.03 9.037z"/></g><g><path fill="#dbe1ed" d="M276.113 51.301c2.1.273 4.211.448 6.324.53.08 2.132.257 4.262.533 6.382.165 1.05 1.157 1.899 2.176 1.899 1.019 0 2.01-.849 2.175-1.899.276-2.12.452-4.25.533-6.383a70.204 70.204 0 0 0 6.324-.529c1.05-.164 1.897-1.152 1.897-2.168 0-1.015-.848-2.004-1.897-2.168a70.187 70.187 0 0 0-6.327-.529 70.117 70.117 0 0 0-.53-6.305c-.165-1.05-1.156-1.899-2.175-1.899-1.02 0-2.011.849-2.176 1.9a70.113 70.113 0 0 0-.53 6.304 70.2 70.2 0 0 0-6.327.53c-1.05.163-1.897 1.152-1.897 2.167 0 1.016.848 2.004 1.897 2.168z"/></g><g><path fill="#dbe1ed" d="M302.477 163.75c1.826.237 3.662.389 5.499.46.07 1.854.223 3.706.463 5.55.144.913 1.006 1.651 1.892 1.651.886 0 1.749-.738 1.892-1.651.24-1.844.393-3.696.463-5.55a61.093 61.093 0 0 0 5.5-.46c.912-.143 1.65-1.003 1.65-1.886s-.738-1.742-1.65-1.885a61.046 61.046 0 0 0-5.502-.46 60.972 60.972 0 0 0-.46-5.482c-.144-.914-1.007-1.651-1.893-1.652-.886 0-1.748.738-1.892 1.652a60.972 60.972 0 0 0-.46 5.482 61.05 61.05 0 0 0-5.502.46c-.913.143-1.65 1.002-1.65 1.885s.737 1.743 1.65 1.886z"/></g><g><path fill="#dbe1ed" d="M315.083 85.796c7.873 0 14.256 6.389 14.256 14.27 0 7.88-6.383 14.268-14.256 14.268s-14.256-6.388-14.256-14.269c0-7.88 6.383-14.269 14.256-14.269zm-9.266 14.27c0 5.122 4.148 9.274 9.266 9.274s9.267-4.152 9.267-9.275c0-5.122-4.15-9.275-9.267-9.275-5.118 0-9.266 4.153-9.266 9.275z"/></g><g><path fill="#d4dcec" d="M264.87 193.926c4.987 0 9.03 4.046 9.03 9.037 0 4.99-4.043 9.037-9.03 9.037-4.986 0-9.028-4.046-9.028-9.037 0-4.991 4.042-9.037 9.028-9.037zm-5.868 9.037a5.871 5.871 0 0 0 5.868 5.874 5.871 5.871 0 0 0 5.869-5.874 5.871 5.871 0 0 0-5.869-5.874 5.871 5.871 0 0 0-5.868 5.874z"/></g><g><path fill="#dbe1ed" d="M309.38 5.413a5.23 5.23 0 0 0 5.228 5.232 5.23 5.23 0 0 0 5.227-5.232 5.23 5.23 0 0 0-5.227-5.232 5.23 5.23 0 0 0-5.227 5.232z"/></g></g></g></g></svg>